<?xml version="1.0" encoding="utf-8"?>
<!-- Generator: Adobe Illustrator 26.2.1, SVG Export Plug-In . SVG Version: 6.00 Build 0)  -->
<svg version="1.1" id="Layer_1" xmlns="http://www.w3.org/2000/svg" xmlns:xlink="http://www.w3.org/1999/xlink" x="0px" y="0px"
	 viewBox="0 0 300 200" style="enable-background:new 0 0 300 200;" xml:space="preserve">
<style type="text/css">
	.st0{enable-background:new    ;}
	.st1{fill:#FFFFFF;}
</style>
<g>
	<g id="Group_2_1_" transform="translate(-898.457 -89.871)">
		<g class="st0">
			<path class="st1" d="M903.6,218.4c3.5-0.7,6.7-1.6,9.6-2.6c2.9-1.1,5.4-2.2,7.6-3.6c2.2-1.3,4-2.7,5.4-4.2s2.5-3,3.1-4.5
				c-1.1,0-2.2,0-3.4-0.1s-2.2-0.1-3-0.1c-2.5-0.2-4.7-0.7-6.7-1.4s-3.8-1.7-5.2-3s-2.6-2.9-3.4-4.7c-0.8-1.8-1.2-4-1.2-6.4
				c0-1.5,0.2-3.1,0.5-4.7c0.3-1.6,0.8-3.2,1.4-4.7c0.6-1.5,1.4-3,2.3-4.3c0.9-1.3,1.9-2.5,3.1-3.6s2.4-1.8,3.8-2.4
				c1.4-0.6,2.9-0.9,4.5-0.9c1.9,0,3.6,0.3,5.2,1c1.6,0.7,3.1,1.6,4.4,2.8c1.3,1.2,2.5,2.6,3.6,4.1c1,1.6,1.9,3.3,2.7,5.1
				c0.8,1.8,1.4,3.7,1.9,5.6c0.5,1.9,0.8,3.8,1,5.7h1.6v11.8H940c-1,3.7-2.5,7-4.7,10c-2.1,3-4.7,5.6-7.7,7.8
				c-3,2.2-6.3,4.1-9.9,5.5c-3.6,1.4-7.4,2.5-11.4,3.1L903.6,218.4z M922,179.2c-0.5-0.1-1.1,0.1-1.8,0.5s-1.3,1.1-1.9,1.9
				c-0.6,0.8-1.1,1.7-1.5,2.6c-0.4,1-0.6,1.9-0.6,2.7c0,0.9,0.3,1.5,0.8,2.1c0.5,0.6,1.2,1,2,1.4s1.8,0.6,2.8,0.8
				c1,0.2,2.1,0.3,3.1,0.4c1,0.1,2,0.1,2.9,0.1h2.3c-0.4-1.5-0.8-3-1.3-4.5c-0.5-1.4-1.1-2.7-1.8-3.8s-1.4-2.1-2.3-2.8
				C924,179.8,923.1,179.4,922,179.2z"/>
			<path class="st1" d="M968.9,191.7v11.8H968c-2.4,0-4.5-0.3-6.1-1c-1.7-0.7-3.1-1.6-4.4-2.8c-1.8,1.3-3.9,2.3-6.4,2.9
				c-2.4,0.6-5.4,0.9-8.8,0.9h-1.4v-11.8h1.4c3.4,0,6-0.6,7.8-1.7c1.7-1.1,2.6-2.8,2.6-5.1c0-0.8-0.1-1.8-0.3-3.2
				c-0.2-1.4-0.6-3.2-1.2-5.4l10.6-2.6c0.4,1.4,0.7,2.6,1,3.7c0.3,1.1,0.5,2,0.6,2.9c0.1,0.9,0.3,1.7,0.3,2.4
				c0.1,0.7,0.1,1.5,0.2,2.2c0,0.7,0.1,1.4,0.2,2.2c0.1,0.8,0.3,1.5,0.6,2.2c0.3,0.7,0.7,1.2,1.2,1.7c0.5,0.4,1.2,0.7,2.1,0.7H968.9
				z M952.9,167.8l-8.3-8.3l8.3-8.3l8.3,8.3L952.9,167.8z"/>
			<path class="st1" d="M1000.8,191.7v11.8h-0.9c-1.2,0-2.4-0.1-3.5-0.3s-2.3-0.5-3.3-0.8c-1-0.4-2-0.8-2.8-1.3
				c-0.9-0.5-1.6-1-2.2-1.6c-1.2,0.9-2.5,1.6-4,2.1c-1.5,0.5-3.1,0.9-4.8,1.2s-3.4,0.5-5.2,0.6c-1.8,0.1-3.5,0.1-5.3,0.1h-1.4v-11.8
				h1.4c1.8,0,3.4,0,4.8-0.2c1.4-0.1,2.6-0.3,3.7-0.5c1.1-0.2,2-0.6,2.7-1c0.7-0.4,1.3-0.9,1.8-1.6c0.6-0.8,0.9-1.7,1.1-2.7
				c0.1-1,0.1-2,0-3c-0.1-1-0.3-2.1-0.6-3.1s-0.5-2-0.7-3l10.9-3.1c0.3,1.1,0.6,2.1,0.8,3.1c0.2,0.9,0.4,1.8,0.6,2.7
				c0.2,0.9,0.3,1.8,0.4,2.7c0.1,0.9,0.3,1.9,0.4,2.9c0.1,0.7,0.2,1.4,0.4,2.2c0.2,0.8,0.4,1.5,0.8,2.2c0.4,0.7,0.9,1.2,1.6,1.7
				c0.7,0.5,1.5,0.7,2.6,0.7H1000.8z M982,214.5l-7,7l-7.3-7.2l7.2-7.2l7.1,7.1l7-7l7.3,7.2l-7.2,7.2L982,214.5z"/>
			<path class="st1" d="M999.3,191.7h5.1c1,0,2.2-0.1,3.5-0.3c1.3-0.2,2.4-0.5,3.5-0.8c1.1-0.4,2-0.9,2.7-1.6
				c0.7-0.7,1.1-1.5,1.1-2.5c0-0.6-0.2-1.5-0.5-2.7c-0.4-1.2-0.8-2.5-1.4-4c-0.6-1.5-1.2-3-1.9-4.6c-0.7-1.6-1.5-3.1-2.2-4.6
				l10.7-5.3c0.7,1.6,1.4,3.2,2.1,5s1.3,3.6,1.9,5.4c0.5,1.8,1,3.6,1.3,5.5c0.3,1.8,0.5,3.5,0.5,5.2c0,3-0.5,5.6-1.5,7.7
				c-1,2.1-2.4,3.9-4.2,5.3c-1.8,1.4-3.9,2.4-6.4,3.1c-2.5,0.7-5.2,1-8.2,1h-6V191.7z M1011.3,161.5l-8.3-8.3l8.3-8.3l8.3,8.3
				L1011.3,161.5z"/>
			<path class="st1" d="M1050.3,203.5c-3.1,0-5.8-0.4-7.9-1.3c-2.2-0.8-3.9-2-5.3-3.5s-2.4-3.2-3-5.2c-0.6-2-0.9-4.2-0.9-6.5
				c0-1.2,0-2.7,0.1-4.5c0-1.8,0.1-3.9,0.1-6.2c0-2.3,0-4.9,0-7.7c0-2.8-0.1-5.6-0.2-8.5c-0.1-2.8-0.3-5.5-0.5-8.1
				c-0.2-2.6-0.5-4.9-0.9-6.8l11.2-3.4c0.3,1.6,0.6,3.6,0.8,5.8c0.2,2.2,0.4,4.6,0.5,7s0.2,4.9,0.3,7.4c0.1,2.5,0.1,4.8,0.1,6.9
				c0,1.9,0,3.8-0.1,5.9c-0.1,2.1-0.2,4-0.2,5.9c-0.1,1.9,0,3.6,0.1,5.1c0.1,1.5,0.3,2.7,0.7,3.5c0.2,0.6,0.5,1,0.8,1.3
				s0.7,0.5,1.2,0.7c0.4,0.1,0.9,0.2,1.5,0.3c0.5,0,1.1,0,1.8,0h1v11.8H1050.3z"/>
			<path class="st1" d="M1049.8,191.7h5.1c1,0,2.2-0.1,3.5-0.3c1.3-0.2,2.4-0.5,3.5-0.8c1.1-0.4,2-0.9,2.7-1.6
				c0.7-0.7,1.1-1.5,1.1-2.5c0-0.6-0.2-1.5-0.5-2.7s-0.8-2.5-1.4-4c-0.6-1.5-1.2-3-1.9-4.6c-0.7-1.6-1.5-3.1-2.2-4.6l10.7-5.3
				c0.7,1.6,1.4,3.2,2.1,5c0.7,1.8,1.3,3.6,1.9,5.4c0.5,1.8,1,3.6,1.3,5.5c0.3,1.8,0.5,3.5,0.5,5.2c0,3-0.5,5.6-1.5,7.7
				c-1,2.1-2.4,3.9-4.2,5.3c-1.8,1.4-3.9,2.4-6.4,3.1c-2.5,0.7-5.2,1-8.2,1h-6V191.7z M1061.8,161.5l-8.3-8.3l8.3-8.3l8.3,8.3
				L1061.8,161.5z"/>
		</g>
		<g id="Group_1_1_" transform="translate(585.866 -352.486)">
			<path id="Path_3338_1_" class="st1" d="M538,508.6l1.3,2.8c-2.5,2.6-5.1,5-7.3,7.7c-4.7,5.7-7.7,12.6-8.7,20
				c-1.5,9.6,0.6,19.4,6.1,27.5c5.9,9.3,15.4,15.6,26.3,17.4c2.4,0.4,4.9,0.6,7.3,1c2.4,0.3,3-0.8,2.9-3
				c-0.1-10.5-0.1-20.9-0.1-31.4c0-13.6,0-27.3,0-40.9c-0.2-1.3,0.6-2.6,1.9-3.1c5.2-2.6,10.3-5.5,15.5-8.2c0.8-0.4,1.6-0.7,2.4-1
				c-0.3,4.8,1,9.4-1.6,13.4c-1.5,2-3.2,3.8-5.2,5.3c-0.8,0.5-1.6,1-2.5,1.3c-6.3,3.1-6.7,4-5.4,11.5c4.8-2.5,9.5-5,14.2-7.5
				c2.4-1.2,2.8-0.9,2.8,1.9c0,4.9-0.2,9.7-3.7,13.6c-0.6,0.7-1.2,1.2-2,1.6c-3.3,1.7-6.6,3.3-10,4.9c-1.3,0.6-2.1,1.2-1.8,3
				c0.2,2.2,0.2,4.4,0.1,6.6l19.5-11.1c0,3.9-0.3,7.7-0.8,11.5c-0.8,3.7-3.3,6.7-6.7,8.3c-3.6,1.8-7,4-10.5,6.1
				c-0.7,0.4-1.5,1.2-1.5,1.9c-0.1,4.6-0.1,9.3-0.1,13.9c9.4,0.4,24.5-11.5,29.3-22.6c7.3-16.9,3.4-36.2-12.4-49l1.2-3
				c10.3,2.6,21.2,24.9,19.5,40.2c-2.6,23.9-20.2,39.2-40.5,41.1c-25,2.3-43.9-13.7-48.7-35C514.6,535,524.6,516.3,538,508.6z"/>
			<path id="Path_3339_1_" class="st1" d="M536.4,542.2c3.1,1.8,5.9,3.3,8.7,4.9c4.5,2.6,9,5.3,13.5,7.8c1.3,0.5,2.1,1.8,1.9,3.1
				c-0.1,4.2-0.1,8.5-0.1,12.9c-0.5-0.1-1.1-0.2-1.6-0.4c-5.7-3.3-11.4-6.5-17-9.8c-3.1-2-5.2-5.3-5.5-9
				C536.2,548.5,536.2,545.3,536.4,542.2z"/>
			<path id="Path_3340_1_" class="st1" d="M560.5,547.3c-6-3.1-11.2-5.6-16.2-8.5c-3.6-2.3-5.8-6.2-6-10.4c-0.2-2.6,0-5.3,0-8.3
				c2.1,1,3.9,1.9,5.7,2.8c4.8,2.6,9.7,5.2,14.5,7.7c1.4,0.5,2.2,1.9,2.1,3.3C560.4,538.1,560.5,542.3,560.5,547.3z"/>
			<path id="Path_3341_1_" class="st1" d="M541.7,498.3c0.9,0.2,1.8,0.5,2.7,0.9c5,2.5,9.9,5,14.9,7.7c0.6,0.4,1.1,1,1.2,1.7
				c0.1,4.7,0.1,9.3,0.1,14.4c-1.1-0.5-2-0.8-2.8-1.2c-2.8-1.3-5.5-2.9-8.3-4c-5-2.1-7.1-6.1-7.6-11.1
				C541.6,503.8,541.5,501,541.7,498.3z"/>
			<path id="Path_3342_1_" class="st1" d="M553.4,494.6l9.8-14.4c3.4,5,6.5,9.6,9.8,14.4c-3.2,1.7-6,3.3-8.8,4.8
				c-0.5,0.3-1.1,0.4-1.7,0.2C559.5,498.1,556.6,496.4,553.4,494.6z"/>
		</g>
	</g>
</g>
</svg>
