<svg version="1.2" xmlns="http://www.w3.org/2000/svg" viewBox="0 0 160 49" width="160" height="49">
	<title>Logo-svg</title>
	<style>
		.s0 { fill: #008c9b } 
		.s1 { fill: #e62263 } 
	</style>
	<g id="Layer">
		<g id="Layer">
			<path id="Layer" class="s0" d="m141.7 13.1c2.9 0 5.4 2.5 5.3 5.4-0.1 3.2-2.5 5.3-5.4 5.3-3 0.1-5.4-2.4-5.4-5.4 0-2.9 2.4-5.3 5.5-5.3z"/>
		</g>
		<path id="Layer" class="s1" d="m157.3 12.4v12c0 5.1-4.1 9.2-9.3 9.2h-6.1q-0.2 0.1-0.6 0h-4.7c-0.4 0-0.7-0.3-0.7-0.7v-3.9c0-1.4 1.1-2.4 2.4-2.4h8.5c1.8 0 3.2-1.5 3.2-3.3v-4.4q0.1-0.2 0.1-0.4 0-0.4-0.1-0.7v-0.1-4.2c0-1.8-1.4-3.3-3.2-3.3h-9.9c-1.6 0-2.9 1.1-3.2 2.7v1.7 18.6h-4.4c-1.6 0-2.8-1.2-2.8-2.8v-17.9c0-5.2 4.1-9.3 9.2-9.3h12.4c5.1 0 9.2 4.1 9.2 9.2z"/>
		<g id="Layer">
			<path id="Layer" class="s0" d="m84.2 39.3c0.4 0.5 0.4 1.1 0 1.6l-2.2 2.2c-0.4 0.4-1.1 0.4-1.6 0l-2.1-2.2c-0.4-0.5-0.4-1.1 0-1.6l2.1-2.2c0.4-0.4 1.2-0.4 1.6 0z"/>
			<path id="Layer" class="s0" d="m76.9 39.3c0.5 0.5 0.5 1.1 0 1.6l-2.1 2.2c-0.5 0.4-1.2 0.4-1.6 0l-2.2-2.2c-0.4-0.4-0.4-1.1 0-1.6l2.2-2.1c0.4-0.5 1.1-0.5 1.5 0z"/>
			<path id="Layer" fill-rule="evenodd" class="s0" d="m112.3 22.6q0.3 1.5 0.4 2.9 0 4.6-2.4 6.9-0.8 0.9-2 1.4c-0.7 0.3-1.3 0.4-1.9 0.4q-0.2 0.1-0.6 0.1c-1.5 0-3.2-0.4-5-1.2-0.6-0.2-1.3-0.6-2-1l-0.4-0.2-0.4-0.2q-0.4-0.3-0.6-0.4-1.5 1.6-5.2 1.6h-2.8q-1.3 0-2.4-0.3c-0.6-0.1-1.1-0.3-1.6-0.6q-0.9-0.4-1.3-0.8c-0.3 0.3-0.8 0.5-1.4 0.8q-2 0.9-4.6 0.9h-7.2c-1.8 0-3.5-0.7-5.2-2.3q-0.9 0.9-1.9 1.5c-1.3 0.7-2.8 1.9-4.4 1.9-1.8 0-4 0-6.7-0.6q-1.3-0.3-2.5-0.7l0.7-6.2q0.7 0.2 1.6 0.5 1 0.3 2.1 0.5c2 0.4 3.6 0.3 4.8 0.3 0.9 0 1.5-1 1.8-1.6 0.1-0.2 0.2-0.4 0.2-0.6 0-0.3-0.2-0.7-0.4-1-1.2-1.7-2.2-3.2-3.2-4.6-0.5-1-1.1-1.8-1.7-2.6l5.3-3.4q2.2 3.3 5.3 8 0.1 0.2 0.3 0.5c0.2 0.2 0.4 0.4 0.5 0.7 0.4 0.6 0.9 1.1 1.2 1.6q1.7 1.9 2.6 1.9h0.4 6.8c0.9 0 1.5-0.1 1.9-0.4q0.5-0.4 0.5-1.3v-4.1c0-0.6 0.5-1.1 1.1-1.1h5.1v5.2c0 0.6 0.2 1 0.5 1.3q0.5 0.4 1.7 0.4h2.7q1.9 0 2.5-0.8c0.2-0.2 0.5-1.2 1.1-2.8q0-0.2 0.1-0.4 0-0.2 0.1-0.4c0.1-0.4 0.3-0.7 0.4-1 0.5-0.9 1-1.7 1.6-2.5q2.5-3.1 6.4-3.1 4.4 0 6.7 3.7c0.6 1 1.1 2 1.4 3.2zm-5.4 3.4c0-0.2-0.1-0.3-0.1-0.4q-0.1-1.5-0.8-2.5-0.8-1.1-1.8-1.1-1.4 0-2.4 1.6-0.3 0.6-0.5 1.5c-0.1 0.1-0.2 0.4-0.3 0.6v0.3l-0.1 0.2q1.1 1 2.8 1.6 1.4 0.5 2.3 0.5 0.3 0 0.6-0.8c0.2-0.5 0.3-1 0.3-1.5z"/>
			<path id="Layer" class="s0" d="m121.7 5.5v26.3c0 0.6-0.5 1.1-1.1 1.1h-5.1v-26.2c0-0.7 0.5-1.2 1.1-1.2z"/>
			<path id="Layer" class="s0" d="m41.1 42.7c0.4 0.4 0.4 1.1 0 1.5l-1.7 1.7c-0.5 0.5-1.1 0.5-1.6 0l-1.7-1.7c-0.5-0.4-0.5-1.1 0-1.6l1.7-1.7c0.4-0.4 1.1-0.4 1.6 0z"/>
			<path id="Layer" class="s0" d="m37.4 40.5l-2.2 2.2c-0.4 0.4-1.1 0.4-1.5 0l-2.2-2.2c-0.5-0.4-0.5-1.1-0.1-1.5l2.2-2.3c0.5-0.4 1.2-0.4 1.6 0l2.2 2.3c0.4 0.4 0.4 1.1 0 1.5z"/>
			<path id="Layer" class="s0" d="m46.5 23.2q0.2 0.9 0.2 1.7c0 1.8-0.5 3.3-1.5 4.7q-2.4 3.2-7.8 3.3h-2.7-4.6c0.3 0.4 0.4 1 0.4 1.8 0 0.3 0 0.6 0 0.9q-0.1 0.6-0.2 1.2-0.4 1.6-1.5 2.7c-1.9 2.4-5.4 3.6-10.4 3.6h-5.2q-6.4 0-9.6-4.5-2.5-3.4-2.5-8.1 0-1.9 0.5-3.9h6.3q-0.5 2.1-0.5 3.9c0 0.2 0 0.5 0 0.7q0 0.5 0.1 0.9 0.2 1.2 0.8 2.2c0.9 1.7 2.6 2.6 4.9 2.6h5.2q3.9 0 5.5-1 0.9-0.6 0.9-1.1-2.7-1.6-7.5-2.5v-5.7h12.6 4.8 2.6q1.7 0 2.4-0.4c0.5-0.3 0.7-0.8 0.7-1.4q0-0.2-0.1-0.6c-0.1-0.6-0.2-1.3-0.4-2 0-0.3-0.1-0.5-0.1-0.8l-0.1-0.4v-0.3q-0.3-1.5-0.5-2.2h0.2 6.1c0.3 1.3 0.6 3 1 4.7z"/>
			<path id="Layer" class="s0" d="m45.7 39c0.4 0.4 0.4 1.1 0 1.5l-2.3 2.2c-0.4 0.5-1.1 0.5-1.6 0l-2.2-2.2c-0.4-0.4-0.4-1.1 0-1.5l2.3-2.2c0.4-0.5 1.1-0.5 1.6 0z"/>
		</g>
	</g>
</svg>