<svg id="menu" xmlns="http://www.w3.org/2000/svg" width="29.66" height="29.66" viewBox="0 0 29.66 29.66">
  <defs>
    <style>
      .cls-1 {
        fill: #848484;
      }
    </style>
  </defs>
  <g id="Group_76" data-name="Group 76">
    <g id="Group_75" data-name="Group 75">
      <path id="Path_98" data-name="Path 98" class="cls-1" d="M10.242,0H3.43A3.434,3.434,0,0,0,0,3.43v6.812a3.434,3.434,0,0,0,3.43,3.43h6.812a3.434,3.434,0,0,0,3.43-3.43V3.43A3.434,3.434,0,0,0,10.242,0Zm1.113,10.242a1.114,1.114,0,0,1-1.113,1.113H3.43a1.114,1.114,0,0,1-1.113-1.113V3.43A1.114,1.114,0,0,1,3.43,2.317h6.812A1.114,1.114,0,0,1,11.354,3.43Z"/>
    </g>
  </g>
  <g id="Group_78" data-name="Group 78" transform="translate(15.989)">
    <g id="Group_77" data-name="Group 77">
      <path id="Path_99" data-name="Path 99" class="cls-1" d="M286.2,0h-6.72A3.48,3.48,0,0,0,276,3.476V10.2a3.48,3.48,0,0,0,3.476,3.476h6.72a3.48,3.48,0,0,0,3.476-3.476V3.476A3.48,3.48,0,0,0,286.2,0Zm1.159,10.2a1.16,1.16,0,0,1-1.159,1.159h-6.72a1.16,1.16,0,0,1-1.159-1.159V3.476a1.16,1.16,0,0,1,1.159-1.159h6.72a1.16,1.16,0,0,1,1.159,1.159Z" transform="translate(-276 0)"/>
    </g>
  </g>
  <g id="Group_80" data-name="Group 80" transform="translate(0 15.989)">
    <g id="Group_79" data-name="Group 79">
      <path id="Path_100" data-name="Path 100" class="cls-1" d="M10.242,276H3.43A3.434,3.434,0,0,0,0,279.43v6.812a3.434,3.434,0,0,0,3.43,3.43h6.812a3.434,3.434,0,0,0,3.43-3.43V279.43A3.434,3.434,0,0,0,10.242,276Zm1.113,10.242a1.114,1.114,0,0,1-1.113,1.113H3.43a1.114,1.114,0,0,1-1.113-1.113V279.43a1.114,1.114,0,0,1,1.113-1.113h6.812a1.114,1.114,0,0,1,1.113,1.113Z" transform="translate(0 -276)"/>
    </g>
  </g>
  <g id="Group_82" data-name="Group 82" transform="translate(15.989 15.989)">
    <g id="Group_81" data-name="Group 81">
      <path id="Path_101" data-name="Path 101" class="cls-1" d="M286.2,276h-6.72A3.48,3.48,0,0,0,276,279.476v6.72a3.48,3.48,0,0,0,3.476,3.476h6.72a3.48,3.48,0,0,0,3.476-3.476v-6.72A3.48,3.48,0,0,0,286.2,276Zm1.159,10.2a1.16,1.16,0,0,1-1.159,1.159h-6.72a1.16,1.16,0,0,1-1.159-1.159v-6.72a1.16,1.16,0,0,1,1.159-1.159h6.72a1.16,1.16,0,0,1,1.159,1.159Z" transform="translate(-276 -276)"/>
    </g>
  </g>
</svg>
